<?xml version="1.0" encoding="utf-8"?>
<!-- Generator: Adobe Illustrator 23.0.1, SVG Export Plug-In . SVG Version: 6.00 Build 0)  -->
<svg version="1.1" id="Layer_1" xmlns="http://www.w3.org/2000/svg" xmlns:xlink="http://www.w3.org/1999/xlink" x="0px" y="0px"
	 viewBox="0 0 32.5 24" style="enable-background:new 0 0 32.5 24;" xml:space="preserve">
<style type="text/css">
	.st0{fill:#F8B517;}
	.st1{fill:#D42736;}
</style>
<g transform="translate(-121.055 -285.648) scale(.90958)">
	<path class="st0" d="M166.3,324.4L166.3,324.4L166.3,324.4c-0.2,0.3-0.3,0.6-0.3,1c-0.1,0.4-0.1,0.9-0.3,1.3
		c-0.2,0.5-0.5,1.1-1.1,1.5c-0.6-1.6-1.4-3-2.5-4.3c0.7-0.3,1.3-0.3,1.9-0.2c0.4,0.1,0.9,0.2,1.3,0.4
		C165.6,324.3,166,324.5,166.3,324.4L166.3,324.4z M159.8,318L159.8,318L159.8,318c0,0.4,0.1,0.7,0.2,1c0.2,0.4,0.3,0.8,0.4,1.3
		c0.1,0.5,0.1,1.2-0.2,1.9c-1.3-1.1-2.7-1.9-4.3-2.5c0.4-0.6,1-0.9,1.5-1.1c0.4-0.2,0.9-0.2,1.3-0.3
		C159.2,318.2,159.5,318.1,159.8,318L159.8,318z M165.3,330.8c0.7,0.1,1.3,0.4,1.7,0.8c0.3,0.3,0.6,0.6,0.9,1
		c0.2,0.3,0.5,0.6,0.8,0.7h-3.2C165.5,332.5,165.4,331.6,165.3,330.8z M142.1,318L142.1,318L142.1,318c0.3,0.2,0.6,0.3,1,0.3
		c0.4,0.1,0.9,0.1,1.3,0.3c0.5,0.2,1.1,0.5,1.5,1.1c-1.6,0.6-3,1.4-4.3,2.5c-0.3-0.7-0.3-1.3-0.2-1.9c0.1-0.4,0.2-0.9,0.4-1.3
		C142,318.6,142.1,318.3,142.1,318z M135.6,324.4L135.6,324.4L135.6,324.4c0.4,0,0.7-0.1,1-0.2c0.4-0.2,0.8-0.3,1.3-0.4
		c0.5-0.1,1.2-0.1,1.9,0.2c-1.1,1.3-1.9,2.7-2.5,4.3c-0.6-0.4-0.9-1-1.1-1.5c-0.2-0.4-0.2-0.9-0.3-1.3
		C135.9,325.1,135.8,324.7,135.6,324.4L135.6,324.4z M133.3,333.3c0.3-0.2,0.6-0.4,0.8-0.7c0.3-0.4,0.6-0.7,0.9-1
		c0.4-0.3,1-0.7,1.7-0.8c-0.1,0.8-0.2,1.6-0.2,2.5H133.3L133.3,333.3z M151,315.6L151,315.6L151,315.6c0.2,0.3,0.4,0.6,0.7,0.8
		c0.4,0.3,0.7,0.6,1,0.9c0.3,0.4,0.7,1,0.8,1.7c-0.8-0.1-1.6-0.2-2.5-0.2s-1.7,0.1-2.5,0.2c0.1-0.7,0.4-1.3,0.8-1.7
		c0.3-0.3,0.6-0.6,1-0.9C150.5,316.1,150.8,315.9,151,315.6L151,315.6z"/>
	<path class="st1" d="M148,333.3l1.1,0c0.1-0.9-0.1-1.6-1.1-1.5c-0.8,0.1-1.6,0.9-2.1,1.5l1.4,0c0.2-0.1,0.5-0.2,0.6-0.1
		C148,333.2,148,333.2,148,333.3z"/>
	<path class="st1" d="M152.9,333.3h1.4c0.1-1.6-0.2-3.3-0.9-4.7c-0.7-1.3-1.8-2.2-3.3-2.4c-2.1-0.3-4.3,0.6-6.1,1.9
		c-2,1.4-3.6,3.3-5,5.3l1.8,0c1.6-2.3,5.4-5.8,8.1-5.8c0.9,0,1.8,0.2,2.4,0.8c0.5,0.4,1.1,1.3,1,1.9c0,0.4-0.4,0.5-0.7,0.4
		c-0.3-0.1-0.4-0.3-0.6-0.6c-0.6-0.8-1.5-1.2-2.6-1.1c-1.2,0.2-2.7,1.1-3.7,2c-0.8,0.7-1.6,1.6-2.3,2.4h1.9c0.7-0.9,1.5-1.6,2.4-2.2
		c0.3-0.2,0.7-0.4,1.1-0.5c1-0.3,2-0.3,2.4,1c0.2,0.5,0.2,0.9,0.1,1.7l0,0h1.3l0,0c0-0.4,0-0.7,0-1.1c0-0.4,0.1-0.7,0.5-0.8
		C153,331.2,152.9,332.8,152.9,333.3L152.9,333.3z"/>
	<path class="st1" d="M155.7,333.3h1.4c0.1-1.5-0.1-3.3-0.5-4.8c-0.1-0.3-0.2-0.6-0.3-0.9c-0.3-0.7-0.7-1.3-1.2-1.8
		c-0.5-0.6-1.1-1.2-1.8-1.6c-0.2-0.1-0.4-0.2-0.6-0.4v0c-0.2-0.1-0.4-0.2-0.7-0.3l0,0c-2.7-1-5.4-0.3-7.7,1
		c-0.4,0.2-0.9,0.5-1.3,0.8c-0.4,0.3-0.8,0.6-1.2,0.9h0l0,0l0,0c-0.4,0.3-1,0.8-1.5,1.4c-0.1,0.1-0.2,0.2-0.3,0.3
		c-0.3,0.3-0.7,0.7-0.6,1.2c0.1,0.4,0.6,0.2,0.7,0.1c0.2-0.1,0.5-0.3,0.7-0.5c0.3-0.3,0.6-0.5,0.9-0.8c1.2-1.1,2.5-1.9,3.8-2.5
		c0.3-0.1,0.6-0.2,0.8-0.3c0.3-0.1,0.5-0.2,0.8-0.3l0,0c2.4-0.6,4.9-0.2,6.6,1.7C155.4,328.3,155.7,330.8,155.7,333.3L155.7,333.3z
		 M138.7,331.2c0.1-0.1,0.3-0.3,0.5-0.5c0.2-0.3,0.2-0.5,0.2-0.7c0-0.1-0.1-0.1-0.1-0.2c-0.1,0-0.1-0.1-0.2-0.1
		c-0.2,0-0.4,0-0.6,0.2c-0.2,0.2-0.5,0.7-0.5,1.1c0,0.1,0,0.1,0,0.2c0,0.1,0,0.1,0.1,0.2l0,0l0,0c0,0.1,0.1,0.1,0.2,0.1
		c0,0,0,0,0.1,0c0,0,0.1,0,0.1,0l0,0l0,0C138.4,331.4,138.5,331.3,138.7,331.2z"/>
	<path class="st1" d="M159.2,333.3L159.2,333.3L159.2,333.3c0.2,0,0.4-0.1,0.6-0.3c0,0,0.1-0.1,0.1-0.2c0-0.1,0-0.1,0-0.2h0l0,0l0,0
		c0.1-3.8-1.1-7-3-9.1c-0.4-0.4-0.8-0.8-1.2-1.1c-0.4-0.3-0.9-0.6-1.4-0.9l0,0l0,0l0,0c-1.7-0.9-3.6-1.2-5.4-1
		c-0.4,0-0.7,0.1-1.1,0.1c-0.4,0.1-0.7,0.2-1.1,0.3l0,0c-1.9,0.6-3.7,1.7-5.1,3.2c-0.3,0.3-0.6,0.6-0.8,0.9
		c-0.1,0.2-0.3,0.3-0.4,0.5c1-0.9,2.1-1.6,3.2-2.3c0.3-0.1,0.5-0.3,0.8-0.4c0.3-0.1,0.5-0.2,0.8-0.3l0,0l0,0c1-0.4,2-0.6,3-0.8
		s2-0.1,3,0.1c0.7,0.1,1.4,0.3,2.1,0.6c0.1,0.1,0.2,0.1,0.4,0.2c0.1,0.1,0.2,0.1,0.3,0.2h0l0,0l0,0c2.2,1.2,3.8,3.7,4.5,6.5
		c0.1,0.6,0.2,1.1,0.3,1.7c0.1,0.6,0.1,1.1,0.1,1.7v0l0,0c0,0.3,0.1,0.6,0.3,0.7c0,0,0.1,0,0.1,0h0
		C159.1,333.3,159.1,333.3,159.2,333.3L159.2,333.3z"/>
	<path class="st0" d="M155.2,320.6c5.3,1.8,9.2,6.8,9.2,12.7h-2.6C162,328.1,159.7,323.4,155.2,320.6L155.2,320.6z"/>
	<path class="st1" d="M139.7,337.5h-1.1l-0.3,0.9h-0.9l1.1-3.6h1.1l1.2,3.6H140L139.7,337.5z M138.7,336.9h0.8
		c-0.2-0.7-0.4-1.2-0.4-1.4h0l-0.2,0.7L138.7,336.9L138.7,336.9z M143.6,337.5h-1.1l-0.3,0.9h-0.9l1.1-3.6h1.1l1.2,3.6h-0.9
		L143.6,337.5z M142.7,336.9h0.8c-0.2-0.7-0.4-1.2-0.4-1.4h0l-0.2,0.7L142.7,336.9L142.7,336.9z M145.6,338.4v-3.5
		c0.4-0.1,0.7-0.1,1.1-0.1c0.8,0,1.3,0.2,1.6,0.5c0.3,0.3,0.5,0.7,0.5,1.2c0,0.6-0.2,1.1-0.6,1.4c-0.4,0.3-1,0.5-1.7,0.5
		C146.2,338.4,145.9,338.4,145.6,338.4z M146.4,335.4v2.3c0,0,0.1,0,0.3,0c0.4,0,0.7-0.1,0.9-0.3c0.2-0.2,0.3-0.5,0.3-0.9
		c0-0.4-0.1-0.6-0.3-0.8c-0.2-0.2-0.5-0.3-0.9-0.3C146.7,335.4,146.5,335.4,146.4,335.4L146.4,335.4z M149.7,334.8h0.8v1.4h1.4v-1.4
		h0.8v3.6H152v-1.5h-1.4v1.5h-0.8V334.8z M155.8,337.5h-1.1l-0.3,0.9h-0.9l1.1-3.6h1.1l1.2,3.6h-0.9L155.8,337.5L155.8,337.5z
		 M154.8,336.9h0.8c-0.2-0.7-0.4-1.2-0.4-1.4h0l-0.2,0.7L154.8,336.9L154.8,336.9z M159.7,337.5h-1.1l-0.3,0.9h-0.9l1.1-3.6h1.1
		l1.2,3.6H160L159.7,337.5L159.7,337.5z M158.8,336.9h0.8c-0.2-0.7-0.4-1.2-0.4-1.4h0l-0.2,0.7L158.8,336.9L158.8,336.9z
		 M161.7,338.4v-3.5c0.3-0.1,0.7-0.1,1.1-0.1c0.5,0,0.9,0.1,1.2,0.3c0.2,0.2,0.4,0.4,0.4,0.8c0,0.2-0.1,0.4-0.2,0.5
		c-0.1,0.2-0.3,0.3-0.5,0.3v0c0.2,0.1,0.4,0.3,0.5,0.7c0.2,0.6,0.3,1,0.3,1h-0.8c-0.1-0.1-0.2-0.4-0.3-0.8c0-0.2-0.1-0.4-0.2-0.4
		c-0.1-0.1-0.2-0.1-0.4-0.1h-0.3v1.4H161.7z M162.5,335.4v1h0.3c0.2,0,0.4,0,0.5-0.1c0.1-0.1,0.2-0.2,0.2-0.4s-0.1-0.3-0.2-0.4
		c-0.1-0.1-0.3-0.1-0.5-0.1C162.7,335.4,162.6,335.4,162.5,335.4L162.5,335.4z"/>
</g>
</svg>
