<svg xmlns="http://www.w3.org/2000/svg" width="30" height="30" viewBox="0 0 30 30">
  <g id="Group_40093" data-name="Group 40093" transform="translate(-87 -10705)">
    <g id="Group_40092" data-name="Group 40092" transform="translate(-173 -37)">
      <g id="Rectangle_18710" data-name="Rectangle 18710" transform="translate(260 10742)" stroke="#707070" stroke-width="1" opacity="0">
        <rect width="30" height="30" stroke="none"/>
        <rect x="0.5" y="0.5" width="29" height="29" fill="none"/>
      </g>
    </g>
    <path id="Union_45" data-name="Union 45" d="M-435.171-660.763A11.383,11.383,0,0,1-445-671.629a11.21,11.21,0,0,1,3.223-7.986A11.213,11.213,0,0,1-433.861-683h.028a11.076,11.076,0,0,1,5.915,1.708,11.431,11.431,0,0,1,5.052,7.455,11.227,11.227,0,0,1-.275,5.144,11.216,11.216,0,0,1-2.552,4.472,11.284,11.284,0,0,1-8.181,3.532A11.341,11.341,0,0,1-435.171-660.763Zm-7.686-7.14a9.842,9.842,0,0,0,3.517,4.208,9.843,9.843,0,0,0,5.5,1.688h.027a9.731,9.731,0,0,0,6.444-2.428l-2.4-2.4a6.445,6.445,0,0,1-4.07,1.446,6.473,6.473,0,0,1-1.62-.207,6.439,6.439,0,0,1-4.35-3.8Zm9.678-10.361a6.451,6.451,0,0,1,3.218,1.247,6.591,6.591,0,0,1,2.158,2.794,6.211,6.211,0,0,1-1.028,6.455l2.4,2.4A9.722,9.722,0,0,0-424-671.842a9.8,9.8,0,0,0-2.761-6.827,9.8,9.8,0,0,0-6.413-2.988Zm-1.842,1.439a5.225,5.225,0,0,0-3.224,2.436,5.223,5.223,0,0,0-.5,4.01,5.137,5.137,0,0,0,1.895,2.655,5.212,5.212,0,0,0,3.042.992,5.167,5.167,0,0,0,1.5-.223A5.2,5.2,0,0,0-428.9-673.2a5.153,5.153,0,0,0-1.888-2.723,5.229,5.229,0,0,0-3.1-1.03A5.261,5.261,0,0,0-435.021-676.824Zm-8.284,7.667,3.12-1.528a6.51,6.51,0,0,1,1.273-5.143l-2.36-2.458A9.955,9.955,0,0,0-443.3-669.157Zm2.965-10.071,2.347,2.447a6.4,6.4,0,0,1,3.489-1.483v-3.394A9.747,9.747,0,0,0-440.339-679.228Z" transform="translate(536 11392)" fill="#007c3d"/>
  </g>
</svg>
