<svg xmlns="http://www.w3.org/2000/svg" xmlns:xlink="http://www.w3.org/1999/xlink" width="324" height="204" viewBox="0 0 324 204">
  <defs>
    <radialGradient id="radial-gradient" cx="0.5" cy="0.5" r="0.5" gradientUnits="objectBoundingBox">
      <stop offset="0" stop-color="#bf9530"/>
      <stop offset="1" stop-color="#9c620e"/>
    </radialGradient>
  </defs>
  <g id="Group_441" data-name="Group 441" transform="translate(-378 -319)">
    <g id="Group_70" data-name="Group 70" transform="translate(342.611 241.433)">
      <path id="Path_594" data-name="Path 594" d="M181.721,132c0,1.966-2.808,6.458-7.206,6.458-1.686,0-2.808-.842-2.808-2.433,0-3.276,6.084-7.488,12.261-7.488a7.275,7.275,0,0,1,3.931,1.03,5.575,5.575,0,0,1,1.5-.749l.094.281a6.236,6.236,0,0,0-1.4.561,3.779,3.779,0,0,1,1.872,3.276c0,2.714-2.715,4.212-5.43,4.212a5.308,5.308,0,0,1-1.216-.094v-.28a5.364,5.364,0,0,0,1.216.093c1.966,0,4.68-1.5,4.68-4.212a3.17,3.17,0,0,0-1.4-2.714c-4.493,2.714-6.365,14.414-15.257,14.414-1.591,0-2.528-.749-2.528-1.778a1.061,1.061,0,0,1,1.031-1.123.981.981,0,0,1,1.028,1.029c0,.843-1.216.656-1.216.843,0,.374.843.748,1.779.748,5.9,0,8.984-11.325,14.882-14.414a7.443,7.443,0,0,0-3.651-.842c-5.522,0-11.98,4.025-11.98,7.207a2.117,2.117,0,0,0,2.339,2.153c3.37,0,7.3-4.587,7.3-6.178Z" fill="#fff" fill-rule="evenodd"/>
      <path id="Path_595" data-name="Path 595" d="M196.043,130.688a1.324,1.324,0,0,1-.188.561c-.467.749-1.778,2.247-3.088,3.838a15.129,15.129,0,0,0-1.592,1.872c-.374.468-2.433,3.182-2.808,3.651a11.972,11.972,0,0,0-1.591,2.714c0,.093,0,.28.374.28.469,0,1.5-.842,1.872-1.123.094-.093.187-.187.281-.187s.094.094.094.187c0,.188-.561.656-.843.843a3.125,3.125,0,0,1-1.966.748c-.467,0-.935-.186-.935-.842a4.459,4.459,0,0,1,.842-1.778c.375-.469.655-.936,1.03-1.4,1.217-1.685,4.773-6.272,5.99-7.676.562-.842,1.591-2.059,2.246-1.965C196.043,130.407,196.043,130.594,196.043,130.688Z" fill="#fff" fill-rule="evenodd"/>
      <path id="Path_596" data-name="Path 596" d="M195.388,142.575v-.468l-.655.655c-1.031.842-1.5.842-1.592.842-.374,0-.374-.187-.374-.374,0-.561,1.029-2.247,2.621-3.744v-1.03a2.477,2.477,0,0,0-.562.468c-.843.562-3.184,2.621-3.184,4.213a.911.911,0,0,0,1.031.935A4.016,4.016,0,0,0,195.388,142.575Zm0,1.217a.715.715,0,0,1-.188-.468,1.729,1.729,0,0,1,.188-.655v1.123m3.557-5.8a1.2,1.2,0,0,1,.748-.188c.186,0,.468,0,.468.188,0,.093-.374.467-.468.655-2.621,3.182-3.464,4.118-3.464,4.68,0,.093.094.28.375.28a3.569,3.569,0,0,0,1.778-1.029c.281-.187.281-.281.375-.281a.2.2,0,0,1,.188.187c0,.094-.094.188-.282.375a4.265,4.265,0,0,1-2.526,1.216.918.918,0,0,1-.749-.28v-1.123l.094-.094h-.094v-.468c1.216-1.124,2.62-2.9,2.62-3.651a.331.331,0,0,0-.375-.374c-.468,0-1.4.749-1.684.936-.188.187-.375.281-.561.468v-1.03a4.464,4.464,0,0,1,2.339-.842c.469,0,.749.187.749.562a.7.7,0,0,1-.094.468s.469-.562.563-.655" fill="#fff" fill-rule="evenodd"/>
      <path id="Path_597" data-name="Path 597" d="M204.747,137.8c.655-.842.749-.936,1.5-1.966a1.5,1.5,0,0,1,1.592-.842c.186,0,.186.094.186.187s0,.188-.562.843c-.467.655-.935,1.217-1.31,1.778h1.872s.187,0,.187.094c0,0,0,.281-.373.281H205.87c-.748.935-3.556,4.493-3.556,5.148,0,.28.094.28.281.28a4.109,4.109,0,0,0,1.778-.935c.374-.375.374-.375.468-.375a.2.2,0,0,1,.187.187c0,.094-.187.188-.374.468a3.737,3.737,0,0,1-2.528,1.123.814.814,0,0,1-.935-.842c0-.281,0-.749,1.5-2.714.188-.375,1.5-1.966,1.78-2.34h-1.311s-.187,0-.187-.094c0-.187.187-.281.373-.281Z" fill="#fff" fill-rule="evenodd"/>
      <path id="Path_598" data-name="Path 598" d="M210.831,139.58c-.468.561-.841,1.123-1.311,1.685a6.543,6.543,0,0,0-1.122,2.059c0,.187.094.374.28.374a3.645,3.645,0,0,0,1.779-1.217c.281-.187.281-.187.374-.187a.183.183,0,0,1,.187.187c0,.094-.187.281-.467.468a3.674,3.674,0,0,1-2.247,1.123c-.188,0-1.03,0-1.03-.842,0-.655.749-1.591,1.124-2.153a23.891,23.891,0,0,1,2.34-2.995,2.224,2.224,0,0,1,1.123-.281c.094,0,.281,0,.281.188,0,.093-.375.467-.469.655Zm3.277-4.119a1.291,1.291,0,0,1-1.125,1.123.592.592,0,0,1-.655-.655,1.2,1.2,0,0,1,1.124-1.029c.374,0,.656.187.656.561" fill="#fff" fill-rule="evenodd"/>
      <path id="Path_599" data-name="Path 599" d="M217.477,137.8c.093,0,.187,0,.187.094a15.908,15.908,0,0,1-1.779,2.527c2.154-2.059,2.9-2.808,4.025-2.808.749,0,.843.468.843.749,0,.561-.749,1.5-1.592,2.434-.748.842-1.684,1.965-1.684,2.527,0,.28.187.28.374.28a3.418,3.418,0,0,0,1.872-1.123l.281-.187c.094,0,.188,0,.188.094a3.663,3.663,0,0,1-2.715,1.684c-.468,0-1.03-.093-1.03-1.029s.749-1.778,2.527-3.65c.375-.469.749-.843.749-1.124,0-.187-.094-.28-.186-.28-.749,0-3.183,2.339-5.617,5.335a1.844,1.844,0,0,1-1.5.655c-.094,0-.186,0-.186-.093s.092-.094.092-.188a14.887,14.887,0,0,1,1.218-1.685c1.4-1.778,2.059-2.714,2.808-3.837h-1.03c-.094,0-.188,0-.188-.094s.094-.281.375-.281Z" fill="#fff" fill-rule="evenodd"/>
      <path id="Path_600" data-name="Path 600" d="M224.31,143.23a3.015,3.015,0,0,1-1.872.842c-.281,0-.936,0-.936-.748,0-.468,0-1.03,3.089-4.774a1.582,1.582,0,0,1,1.59-.749c.094,0,.282,0,.282.188,0,.374-3.932,4.305-3.932,5.335a.343.343,0,0,0,.375.374c.281,0,.655-.281,1.5-.936a23.982,23.982,0,0,0,3.463-3.931c.748-.936.748-1.03,1.872-1.03.094,0,.187,0,.187.188,0,.28-3.839,4.4-3.839,5.241a.343.343,0,0,0,.376.374,5.145,5.145,0,0,0,2.152-1.31h.094a.091.091,0,0,1,.093.094.483.483,0,0,1-.187.374,4,4,0,0,1-2.62,1.31c-.563,0-.936-.28-.936-.842,0-.187.093-.374.093-.561.094-.094.186-.281.28-.375C225.059,142.575,224.683,142.949,224.31,143.23Z" fill="#fff" fill-rule="evenodd"/>
      <path id="Path_601" data-name="Path 601" d="M235.167,137.8a.184.184,0,0,1,.188.188c0,.093-.188.28-.188.28-.188.281-1.216,1.685-1.4,1.966,2.059-1.966,2.62-2.528,3.557-2.528.655,0,.749.375.749.562a1.328,1.328,0,0,1-.188.562,5.352,5.352,0,0,1-.373.749,12.721,12.721,0,0,1,1.684-1.5,2.223,2.223,0,0,1,1.31-.468.76.76,0,0,1,.843.749c0,.281-.094.561-.936,1.685-.468.562-1.03,1.217-1.5,1.778-.561.749-.842,1.123-.842,1.5,0,.187.187.28.373.28a3.228,3.228,0,0,0,1.5-.748,3.863,3.863,0,0,1,.749-.562c.093,0,.187,0,.187.187a4.186,4.186,0,0,1-2.714,1.591c-.376,0-1.125-.093-1.125-.935,0-.468.282-1.311,1.967-3,.562-.655,1.4-1.5,1.4-1.872,0-.187-.094-.187-.281-.187-.094,0-1.686.374-4.679,4.493a8.35,8.35,0,0,1-.749.936,1.842,1.842,0,0,1-1.31.468s-.188,0-.188-.093c0-.656,3.93-4.868,3.93-5.523,0-.187-.094-.281-.186-.281-.655,0-2.9,2.246-4.96,4.774a2.812,2.812,0,0,1-.657.748,3.549,3.549,0,0,1-1.216.375c-.094,0-.187,0-.187-.093,0-.282.468-.843.842-1.311a40.226,40.226,0,0,0,3.277-4.4H232.92c-.093,0-.093,0-.093-.094a.248.248,0,0,1,.281-.281Z" fill="#fff" fill-rule="evenodd"/>
    </g>
    <g id="Group_405" data-name="Group 405">
      <g id="Rectangle_265" data-name="Rectangle 265" transform="translate(378 319)" stroke="#707070" stroke-width="1" fill="url(#radial-gradient)">
        <rect width="324" height="204" stroke="none"/>
        <rect x="0.5" y="0.5" width="323" height="203" fill="none"/>
      </g>
    </g>
    <g id="Group_439" data-name="Group 439" transform="translate(212.739 179.104)">
      <path id="Path_1533" data-name="Path 1533" d="M320.083,294.269l-.845.042-.821.125-.793.2a8.294,8.294,0,0,0-2.165,1.041c-.33.232-.633.47-.939.734-.291.275-.558.555-.821.858s-.475.632-.693.97c-.2.35-.38.695-.548,1.065-.152.382-.278.753-.392,1.148l-.166.8-.086.829v.845l.086.829.166.8c.114.4.24.767.392,1.149.167.368.345.714.548,1.066.219.339.443.652.693.969.263.3.529.58.821.858.3.261.609.5.939.734.34.217.677.412,1.038.6.373.167.738.311,1.127.442l.793.2.821.128.845.043.844-.043.82-.128a11.548,11.548,0,0,0,1.177-.333c.38-.149.736-.31,1.1-.5.351-.2.677-.411,1.007-.644s.609-.5.9-.777.531-.581.781-.9c.234-.328.443-.653.645-1,.187-.362.349-.717.5-1.1a11.923,11.923,0,0,0,.335-1.173l.126-.817.043-.84-.043-.84-.126-.819a12.065,12.065,0,0,0-.335-1.172,11.872,11.872,0,0,0-.5-1.1c-.2-.35-.412-.675-.645-1-.25-.315-.5-.606-.781-.9s-.585-.531-.9-.777c-.331-.235-.657-.443-1.007-.644-.365-.187-.721-.347-1.1-.5-.393-.133-.773-.24-1.177-.335l-.82-.125-.844-.042Zm-53.564-57.1.206-2.185.2-1.478.253-1.462.306-1.443.36-1.421.412-1.4.461-1.379.513-1.357.562-1.331.608-1.306.656-1.281.7-1.252.745-1.223.788-1.194.831-1.163.872-1.132.912-1.1.951-1.064.989-1.028,1.026-.992,1.062-.955,1.1-.916,1.129-.877,1.162-.835,1.193-.793,1.223-.75,1.253-.7,1.28-.662,1.309-.615,1.333-.566,1.357-.52,1.9-.645v-8.364l.489-.008,1.223-.078,1.2-.14,1.176-.2,1.153-.253,1.129-.3,1.107-.358,1.081-.406,1.057-.453,1.035-.5,1.007-.539.984-.582.959-.619.934-.657.908-.691.883-.723.859-.753.832-.782.807-.806.784-.831.757-.854.733-.873.709-.893,1.337-1.83,1.235-1.877,1.136-1.912,1.031-1.928.446-.907,1.7-2.342,1.685-2.16.831-1,.826-.945.825-.892.824-.84.826-.792.831-.744.838-.7.849-.652.86-.608.875-.567.894-.527.915-.486.937-.45.964-.414.993-.376,1.026-.346,1.061-.312,1.1-.28,1.139-.25,1.181-.22,1.227-.193,1.275-.165,1.325-.14,2.812-.2c1.3-.059,2.6-.107,3.9-.129v19.414l-.827-.133-.853-.093-.839-.049-.824-.006-.808.034-.795.076-.778.114-.763.152-.744.188-.729.224-.71.258-.695.291-.673.32-.658.349-.638.378-.619.4-.6.429-1.143.928-1.065,1.014-.985,1.086-.907,1.151-.825,1.2-.741,1.247-.647,1.259c-1.163,2.156-2.294,4.326-3.557,6.426-.446.719-.9,1.421-1.387,2.115-.371.509-.749,1.005-1.142,1.5-.408.486-.825.956-1.258,1.417l-.922.9c-.5.446-1,.869-1.526,1.283l-1.129.808-1.229.773-.656.371-2.015,1.064,2.635,1.228,1.244.634,1.218.677,1.19.719,1.163.758,1.134.8,1.1.836,1.072.874,1.041.912,1.008.947.973.98.94,1.016.9,1.046.867,1.08.827,1.109.788,1.138.749,1.167.706,1.2.666,1.222.621,1.247.579,1.271.533,1.3.488,1.318.441,1.339.392,1.36.342,1.377.294,1.4.241,1.416.19,1.431.138,1.449.083,1.463.027,1.475-.029,1.508-.086,1.493-.143,1.477-.2,1.462-.251,1.444-.3,1.424-.357,1.407-.408,1.384-.459,1.364-.507,1.34-.555,1.317-.6,1.291-.648,1.267-.691,1.239-.735,1.213-.778,1.181-.818,1.152-.859,1.122-.9,1.09-.936,1.055-.975,1.021-1.009.988-1.045.949-1.079.912-1.112.873-1.144.834-1.174.792-1.2.752-1.232.709-1.261.664-1.286.619-4.214,1.842,4.472.226,1.285.129,1.264.191,1.246.251,1.221.31,1.2.366,1.172.424,1.147.477,1.119.528,1.089.58,1.059.63,1.024.678.989.724.955.768.916.812.877.854.835.892.795.932.749.969.7,1,.656,1.038.608,1.069.557,1.1.505,1.127.451,1.156.4,1.184.34,1.205.282,1.229.222,1.249.159,1.271.1,1.288.034,1.3-.034,1.325-.1,1.309-.165,1.288-.23,1.268-.29,1.247-.349,1.224-.409,1.2-.465,1.172-.52,1.142-.573,1.114-.625,1.08-.676,1.048-.724,1.013-.771.975-.816.937-.859.9-.9.856-.942.812-.979.767-1.017.721-1.052.672-1.086.624-1.117.571-1.147.517-1.177.464-1.2.407-1.229.35-1.251.288-1.276.229-1.294.164-1.314.1-1.33.034-1.3-.033L317.5,328.2l-1.266-.158-1.246-.217-1.225-.277-1.2-.332-1.179-.389-1.155-.443-1.125-.5-1.1-.544-1.067-.6L305.9,324.1l-1-.691-.969-.735-.932-.779-.894-.821-.855-.862-.815-.9-.771-.939-.729-.973-.682-1.007-.635-1.04-.587-1.072-.537-1.1L296,312.055l-.431-1.156-.378-1.181-.321-1.2-.264-1.227-.2-1.245-.144-1.263-.1-1.642V237.168H311.8v21.565l1.723-.7,1.381-.651,1.321-.75,1.258-.841,1.189-.932,1.117-1.012,1.04-1.091.956-1.166.868-1.235.778-1.3.681-1.359.579-1.415.251-.728.418-1.488.167-.76.138-.769.107-.781.078-.789.047-.8.016-.807-.027-1.04-.078-1.028-.131-1.014-.179-1-.229-.98-.275-.964-.322-.942-.365-.922-.411-.9-.45-.875-.493-.851-.532-.824-.568-.8-.605-.767-.643-.739-.676-.7-.707-.673-.74-.639-.77-.6-.8-.567-.826-.529-.854-.49-.879-.451-.9-.407-.927-.364-.946-.321-.968-.274-.984-.227-1-.178-1.018-.131-1.032-.078-1.047-.027-.954.021-.944.066-.931.109-.918.149-.9.191-.891.23-.874.268-.857.3-.839.345-.82.376-.8.413-.779.446-.757.478-.734.512-.71.541-.685.57-.659.6-.633.628-.6.653-.576.68-.546.7-.515.728-.484.753-.452.773-.418.795-.382.815-.347.832-.311.853-.273.869-.234.884-.2.9-.162.958v92.031H266.476v-91.36Z" transform="translate(20.732 0.368)" fill="none" stroke="#ffba26" stroke-miterlimit="2.613" stroke-width="1.936" fill-rule="evenodd"/>
      <path id="Path_1534" data-name="Path 1534" d="M305.951,161.434v-5.251a1.784,1.784,0,0,0-.1-.67c-.052-.1-.258-.154-.465-.154V155.1h2.327v4.737l.931-.824c.567-.515.877-.825.93-1.029,0-.155-.259-.259-.776-.259v-.256h2.688v.256a1.735,1.735,0,0,0-.774.155,9.023,9.023,0,0,0-.931.669l-.672.618,1.859,2.265a5.084,5.084,0,0,0,.568.67.7.7,0,0,0,.362.155v.256h-2.947v-.256q.466,0,.466-.155a1.386,1.386,0,0,0-.363-.67l-1.086-1.339-.256.258v1.081a1.814,1.814,0,0,0,.1.67.685.685,0,0,0,.518.155v.256h-2.947v-.256c.207,0,.413-.052.465-.155a1.779,1.779,0,0,0,.1-.67Zm-6.874,0v-2.883a1.8,1.8,0,0,0-.1-.669.75.75,0,0,0-.568-.155v-.256h2.379v.824a2.726,2.726,0,0,1,.517-.567,2.408,2.408,0,0,1,1.292-.411,1.559,1.559,0,0,1,1.189.464,1.23,1.23,0,0,1,.518,1.08v2.574c0,.309,0,.566.1.67q.078.155.466.155v.256h-3v-.256a.745.745,0,0,0,.568-.155,1.775,1.775,0,0,0,.1-.67v-2.265a1.752,1.752,0,0,0-.157-.875c-.1-.154-.258-.206-.568-.206a1,1,0,0,0-.62.206,2.441,2.441,0,0,0-.363.36v2.78c0,.309,0,.566.1.67a.686.686,0,0,0,.517.155v.256H298.4v-.256a.745.745,0,0,0,.568-.155,1.8,1.8,0,0,0,.1-.67Zm-3.518,0v-1.6l-.154.051a2.143,2.143,0,0,0-1.033.515.923.923,0,0,0-.363.773,1.024,1.024,0,0,0,.157.566.833.833,0,0,0,.465.154.859.859,0,0,0,.517-.1c.1-.1.258-.206.412-.361Zm-1.964,1.235a1.494,1.494,0,0,1-.981-.308,1.13,1.13,0,0,1-.363-.874,1.242,1.242,0,0,1,.518-.979,4.637,4.637,0,0,1,1.6-.721l1.187-.309v-.824a.885.885,0,0,0-.256-.772,1.075,1.075,0,0,0-.777-.206.872.872,0,0,0-.671.206c-.155.154-.155.258,0,.412.258.258.361.514.206.773-.1.256-.414.359-.776.359a1.093,1.093,0,0,1-.619-.154.926.926,0,0,1-.207-.566,1.175,1.175,0,0,1,.671-.979,3.154,3.154,0,0,1,1.655-.411,3.574,3.574,0,0,1,1.862.411,1.325,1.325,0,0,1,.62,1.186v2.728a.3.3,0,0,0,.1.256c0,.052.1.1.155.1a.192.192,0,0,0,.155-.051c.052,0,.1-.052.155-.1l.154.206a1.382,1.382,0,0,1-.62.464,2.251,2.251,0,0,1-.723.207,1.023,1.023,0,0,1-.827-.31.655.655,0,0,1-.207-.464,2.9,2.9,0,0,1-.724.464,2.789,2.789,0,0,1-1.294.256Zm-6.667-3.912v2.78a.623.623,0,0,0,.154.462.829.829,0,0,0,.568.154h.052a1.191,1.191,0,0,0,1.086-.411,1.983,1.983,0,0,0,.361-1.339,1.518,1.518,0,0,0-.465-1.235,2.653,2.653,0,0,0-1.551-.412Zm0-2.78v2.472h.206a2.205,2.205,0,0,0,1.344-.361,1.685,1.685,0,0,0,.363-1.235,1.59,1.59,0,0,0-.311-1.081,1.151,1.151,0,0,0-.983-.36.779.779,0,0,0-.517.154.665.665,0,0,0-.1.412Zm-2.017,5.457v-5.251a.861.861,0,0,0-.207-.618,1.678,1.678,0,0,0-.878-.206V155.1H287.7a4.934,4.934,0,0,1,2.379.412,1.38,1.38,0,0,1,.827,1.287,1.47,1.47,0,0,1-.931,1.339,3.273,3.273,0,0,1-1.137.36,5.387,5.387,0,0,1,1.448.462,1.58,1.58,0,0,1,1.033,1.443,1.818,1.818,0,0,1-.93,1.545,4.363,4.363,0,0,1-2.43.566h-4.136v-.256a1.676,1.676,0,0,0,.878-.207.859.859,0,0,0,.207-.618Zm-8.117-3.5a.839.839,0,0,0-.826.515,3.171,3.171,0,0,0-.259,1.594,3.769,3.769,0,0,0,.208,1.546.868.868,0,0,0,.774.514,1.1,1.1,0,0,0,.776-.36,1.474,1.474,0,0,0,.258-.361v-2.831a.96.96,0,0,0-.31-.361,1.077,1.077,0,0,0-.621-.256Zm-.723,4.736a1.9,1.9,0,0,1-1.6-.72,2.822,2.822,0,0,1-.621-1.906,2.858,2.858,0,0,1,.725-1.955,2.211,2.211,0,0,1,1.706-.772,1.929,1.929,0,0,1,1.137.411.528.528,0,0,1,.31.259v-1.8a.892.892,0,0,0-.154-.618c-.1-.154-.363-.206-.725-.206V155.1h2.638v6.332c0,.258.052.412.155.464.052.1.259.154.57.154v.258c-.467.052-.88.1-1.242.154s-.725.1-1.242.206V162a.614.614,0,0,1-.258.259,2.233,2.233,0,0,1-1.4.411Zm-8.53-1.235v-2.883a1.059,1.059,0,0,0-.154-.669c-.053-.1-.259-.155-.517-.155v-.256h2.376v.824a2.73,2.73,0,0,1,.518-.567,2.157,2.157,0,0,1,1.292-.411,1.636,1.636,0,0,1,1.189.464,1.323,1.323,0,0,1,.465,1.08v2.574a1.058,1.058,0,0,0,.155.67c.053.1.207.155.465.155v.256h-3v-.256c.259,0,.465-.052.518-.155a1.059,1.059,0,0,0,.154-.67v-2.265a1.757,1.757,0,0,0-.154-.875.65.65,0,0,0-.57-.206,1,1,0,0,0-.62.206,3.116,3.116,0,0,0-.414.36v2.78a1.058,1.058,0,0,0,.155.67c.053.1.259.155.518.155v.256h-3.049v-.256c.258,0,.464-.052.517-.155a1.059,1.059,0,0,0,.154-.67Zm-2.688-6.488a1.1,1.1,0,0,1,.724.208,1.06,1.06,0,0,1,.259.616.854.854,0,0,1-.259.619,1.127,1.127,0,0,1-.724.256,1.1,1.1,0,0,1-.672-.256.7.7,0,0,1-.259-.619.813.813,0,0,1,.259-.616,1.048,1.048,0,0,1,.672-.208Zm-.826,6.488v-2.883a1.049,1.049,0,0,0-.157-.669c-.052-.1-.258-.155-.517-.155v-.256h2.379v3.964a1.059,1.059,0,0,0,.154.67c.053.1.259.155.517.155v.256h-3.049v-.256c.259,0,.465-.052.517-.155a1.049,1.049,0,0,0,.157-.67Zm-2.121-4.118a3.358,3.358,0,0,0-.931-1.494,2.231,2.231,0,0,0-1.448-.565,1.642,1.642,0,0,0-1.032.308.924.924,0,0,0-.363.772.855.855,0,0,0,.413.773,4.275,4.275,0,0,0,1.395.72,6.668,6.668,0,0,1,2.068,1.132,1.92,1.92,0,0,1,.622,1.391,2.1,2.1,0,0,1-.878,1.751,3.573,3.573,0,0,1-2.224.668,6.649,6.649,0,0,1-1.809-.359,1.661,1.661,0,0,0-.414-.052.521.521,0,0,0-.256.308v.1h-.414v-2.729h.361a3.436,3.436,0,0,0,.931,1.7,2.452,2.452,0,0,0,1.655.618,1.961,1.961,0,0,0,1.137-.309,1.286,1.286,0,0,0,.414-.926.992.992,0,0,0-.414-.824,5.771,5.771,0,0,0-1.5-.723,5.818,5.818,0,0,1-1.861-1.08,1.914,1.914,0,0,1-.62-1.39,1.863,1.863,0,0,1,.774-1.6,2.954,2.954,0,0,1,2.016-.618,4.626,4.626,0,0,1,1.5.309,1.319,1.319,0,0,0,.568.1.527.527,0,0,0,.258-.308l.052-.1h.363v2.42Zm-15.2-1.339a2.021,2.021,0,0,0,.259.721,4.44,4.44,0,0,0,.671.874,1.031,1.031,0,0,0,.414-.206.823.823,0,0,0,.517-.668,1.509,1.509,0,0,0-.361-.978.914.914,0,0,0-.776-.412.69.69,0,0,0-.518.154.66.66,0,0,0-.206.514Zm.517,5.921a1.9,1.9,0,0,0,.827-.256l.361-.207-.826-.978c-.363-.464-.776-.979-1.24-1.6l-.208-.256a2.18,2.18,0,0,0-.515.309.974.974,0,0,0-.416.772,2.248,2.248,0,0,0,.621,1.493,1.872,1.872,0,0,0,1.4.72Zm-1.964-5.251a1.512,1.512,0,0,1,.672-1.235,3.086,3.086,0,0,1,1.758-.515,2.89,2.89,0,0,1,1.551.413,1.167,1.167,0,0,1,.568.978c0,.412-.258.771-.829,1.132a3.423,3.423,0,0,1-1.085.464l1.137,1.493.777.927c.206-.259.361-.464.517-.671.1-.154.154-.256.259-.411a.864.864,0,0,0,.1-.772c-.1-.155-.361-.259-.776-.259v-.308H252.5v.308a1.373,1.373,0,0,0-.724.154,4.273,4.273,0,0,0-.517.671,3.727,3.727,0,0,1-.517.72,5.2,5.2,0,0,1-.675.824l.311.361a2.428,2.428,0,0,0,.57.514,1.177,1.177,0,0,0,.57.155,1.232,1.232,0,0,0,.412-.1,2.382,2.382,0,0,0,.363-.309l.207.1a2.772,2.772,0,0,1-.88,1.081,1.819,1.819,0,0,1-1.187.361,2.81,2.81,0,0,1-.829-.207,3.6,3.6,0,0,1-.723-.515l-.155-.256a8.544,8.544,0,0,1-1.137.618,4.159,4.159,0,0,1-1.758.361,2.708,2.708,0,0,1-1.7-.568,1.8,1.8,0,0,1-.673-1.39,2.046,2.046,0,0,1,.776-1.544,7.931,7.931,0,0,1,1.705-.979,4.032,4.032,0,0,1-.363-.618,2.315,2.315,0,0,1-.309-.978Zm-9.151,5.715a1.034,1.034,0,0,0,.931-.566,4.945,4.945,0,0,0,.259-1.8,3.906,3.906,0,0,0-.259-1.6,1.046,1.046,0,0,0-.931-.464.971.971,0,0,0-.827.618v2.883a1.562,1.562,0,0,0,.1.464.539.539,0,0,0,.262.31.836.836,0,0,0,.464.154Zm-2.585-6.178a1.787,1.787,0,0,0-.1-.67.751.751,0,0,0-.568-.154V155.1h2.429v2.832a2.161,2.161,0,0,1,1.5-.618,2.347,2.347,0,0,1,1.705.72,2.671,2.671,0,0,1,.671,1.8,2.75,2.75,0,0,1-.774,2.059,2.856,2.856,0,0,1-2.069.772,2.535,2.535,0,0,1-1.549-.515l-.1-.1-.983.618h-.154v-6.487Zm-3.464,5.251v-1.6l-.155.051a2.143,2.143,0,0,0-1.033.515.923.923,0,0,0-.363.773,1.044,1.044,0,0,0,.154.566.64.64,0,0,0,.466.154.853.853,0,0,0,.517-.1c.1-.1.259-.206.414-.361Zm-1.964,1.235a1.5,1.5,0,0,1-.983-.308,1.181,1.181,0,0,1-.414-.874,1.421,1.421,0,0,1,.518-.979,5.557,5.557,0,0,1,1.655-.721l1.189-.309v-.824a1.066,1.066,0,0,0-.258-.772,1.144,1.144,0,0,0-.829-.206.75.75,0,0,0-.619.206c-.157.154-.157.258,0,.412a.674.674,0,0,1,.206.773.817.817,0,0,1-.776.359,1.1,1.1,0,0,1-.62-.154.7.7,0,0,1-.207-.566,1.082,1.082,0,0,1,.672-.979,3.153,3.153,0,0,1,1.654-.411,3.84,3.84,0,0,1,1.862.411,1.32,1.32,0,0,1,.62,1.186v2.728a1.059,1.059,0,0,0,.051.256.275.275,0,0,0,.208.1.2.2,0,0,0,.157-.051s.049-.052.1-.1l.207.206a1.41,1.41,0,0,1-.62.464,2.255,2.255,0,0,1-.725.207,1.022,1.022,0,0,1-.826-.31.994.994,0,0,1-.259-.464,2.679,2.679,0,0,1-.672.464,2.922,2.922,0,0,1-1.292.256Zm-3.515-7.723a.958.958,0,0,1,.672.208.883.883,0,0,1,.311.616.735.735,0,0,1-.311.619,1.009,1.009,0,0,1-1.344,0,.735.735,0,0,1-.311-.619.883.883,0,0,1,.311-.616.96.96,0,0,1,.672-.208Zm-.829,3.451v5.2a1.683,1.683,0,0,1-.1.618.5.5,0,0,1-.466.2c-.206,0-.36,0-.413-.1-.052-.052,0-.155.1-.311a.658.658,0,0,0,.1-.668.741.741,0,0,0-.671-.359.919.919,0,0,0-.517.2.705.705,0,0,0-.26.464.989.989,0,0,0,.466.824,2.145,2.145,0,0,0,1.187.309,2.4,2.4,0,0,0,1.76-.566,2.755,2.755,0,0,0,.567-1.854V157.47h-2.533v.256c.309,0,.568.053.62.155.1.052.154.258.154.515Zm-7.5,3.037v-2.883a1.059,1.059,0,0,0-.154-.669c-.052-.1-.258-.155-.517-.155v-.256h2.377v.824a1.782,1.782,0,0,1,.518-.567,2.156,2.156,0,0,1,1.294-.411,1.639,1.639,0,0,1,1.187.464,1.326,1.326,0,0,1,.464,1.08v2.574a1.8,1.8,0,0,0,.1.67.688.688,0,0,0,.517.155v.256h-3v-.256c.258,0,.465-.052.517-.155a1.059,1.059,0,0,0,.154-.67v-2.265a1.757,1.757,0,0,0-.154-.875.646.646,0,0,0-.568-.206,1,1,0,0,0-.621.206,3.1,3.1,0,0,0-.413.36v2.78a1.058,1.058,0,0,0,.155.67c.052.1.258.155.517.155v.256h-3.049v-.256c.259,0,.465-.052.517-.155a1.059,1.059,0,0,0,.154-.67Zm-5.323-3.964v3.551a1.433,1.433,0,0,0,.155.774.606.606,0,0,0,.517.2,1.692,1.692,0,0,0,.671-.2,2.311,2.311,0,0,0,.363-.308v-2.936a.888.888,0,0,0-.155-.618c-.1-.154-.311-.207-.619-.207v-.256h2.531v3.964c0,.258,0,.412.1.464a.838.838,0,0,0,.57.154v.258c-.466.052-.88.1-1.191.154-.36.052-.774.1-1.239.206v-.72a4.617,4.617,0,0,1-.517.412,2.766,2.766,0,0,1-1.242.308,1.7,1.7,0,0,1-1.24-.36,1.544,1.544,0,0,1-.465-1.184v-2.574a1.782,1.782,0,0,0-.1-.669.635.635,0,0,0-.465-.155v-.256h2.327Zm-6.876,1.338h.206a2.227,2.227,0,0,0,1.448-.359,2.033,2.033,0,0,0,.413-1.392,1.689,1.689,0,0,0-.361-1.235,1.271,1.271,0,0,0-1.035-.359,1.115,1.115,0,0,0-.517.1.624.624,0,0,0-.154.464v2.779Zm-2.017,2.626v-5.251c0-.308-.05-.515-.207-.618a1.416,1.416,0,0,0-.879-.206V155.1h3.982a5.315,5.315,0,0,1,2.481.464,1.79,1.79,0,0,1,.827,1.492,1.669,1.669,0,0,1-.93,1.6,5.682,5.682,0,0,1-2.844.515h-.413v2.265a.865.865,0,0,0,.206.618,1.754,1.754,0,0,0,.931.207v.256h-4.241v-.256a1.414,1.414,0,0,0,.879-.207C201.988,161.95,202.038,161.744,202.038,161.434Z" transform="translate(3.485 0)" fill="#ffcf2c" fill-rule="evenodd"/>
      <path id="Path_1559" data-name="Path 1559" d="M213.719,169.336a3.438,3.438,0,0,1,.7-2.264,2.5,2.5,0,0,1,3.742,0,4.041,4.041,0,0,1,0,4.531,2.5,2.5,0,0,1-3.742,0,3.444,3.444,0,0,1-.7-2.267Zm.973,0a3.262,3.262,0,0,0,.413,1.8,1.422,1.422,0,0,0,2.365,0,4.073,4.073,0,0,0,0-3.585,1.422,1.422,0,0,0-2.365,0,3.249,3.249,0,0,0-.413,1.79Zm6.577,2.969-2.08-5.022h.935l1.669,4.023,1.718-4.023h.811l-2.136,5.022Zm8.178-.2a5.55,5.55,0,0,1-1.737.315,2.767,2.767,0,0,1-1.991-.666,2.509,2.509,0,0,1-.7-1.906,2.787,2.787,0,0,1,.668-1.921,2.175,2.175,0,0,1,1.7-.754,1.834,1.834,0,0,1,1.532.623,3.128,3.128,0,0,1,.493,1.943v.293h-3.421a1.627,1.627,0,0,0,1.839,1.7,4.38,4.38,0,0,0,1.613-.351v.721Zm-3.426-2.759h2.425v-.131q0-1.357-1.133-1.358a1.115,1.115,0,0,0-.886.392,1.9,1.9,0,0,0-.407,1.1Zm5.245,2.958v-5.022h.909v.945a2.131,2.131,0,0,1,1.863-1.055,4.371,4.371,0,0,1,.934.115v1.426h-.683v-.7a1.831,1.831,0,0,0-.371-.046,1.722,1.722,0,0,0-.915.241,3.162,3.162,0,0,0-.827.827V172.3Zm4.645,0v-5.932H237.7q2.958,0,2.957,2.847a3.353,3.353,0,0,1-.64,2.131,2.248,2.248,0,0,1-.994.733,4.576,4.576,0,0,1-1.57.221Zm.911-.685h.459a2.679,2.679,0,0,0,1.858-.518,2.31,2.31,0,0,0,.55-1.739,2.56,2.56,0,0,0-.5-1.771,2.2,2.2,0,0,0-1.665-.534h-.7v4.563Zm5.384.685v-5.022h.909v.945a2.13,2.13,0,0,1,1.863-1.055,4.38,4.38,0,0,1,.934.115v1.426h-.685v-.7a1.811,1.811,0,0,0-.37-.046,1.73,1.73,0,0,0-.916.241,3.179,3.179,0,0,0-.826.827V172.3Zm7.9-.606a2.57,2.57,0,0,1-1.651.695,1.649,1.649,0,0,1-1.133-.4,1.263,1.263,0,0,1-.448-.993,1.461,1.461,0,0,1,.7-1.258,3.173,3.173,0,0,1,1.83-.475h.563v-.429a1.02,1.02,0,0,0-.236-.76,1.111,1.111,0,0,0-.781-.225,3.526,3.526,0,0,0-1.637.442v-.781a5.433,5.433,0,0,1,1.823-.346,1.936,1.936,0,0,1,1.352.379,1.766,1.766,0,0,1,.4,1.309v2.1a1.35,1.35,0,0,0,.1.618.388.388,0,0,0,.365.167,1.418,1.418,0,0,0,.288-.048l.082.547a2.422,2.422,0,0,1-.692.148.9.9,0,0,1-.912-.695Zm-.143-.591V169.84h-.274c-1.248,0-1.87.339-1.87,1.012a.759.759,0,0,0,.241.589.9.9,0,0,0,.635.222,2.044,2.044,0,0,0,1.267-.556Zm3.806,1.2v-4.223H252.4V167.4h1.369v-.532a2.014,2.014,0,0,1,.49-1.517,2.3,2.3,0,0,1,1.608-.461,4.9,4.9,0,0,1,1.4.2v.723a3.972,3.972,0,0,0-1.331-.236,1.412,1.412,0,0,0-.977.265,1.249,1.249,0,0,0-.282.931v.629h2.4v.683h-2.4V172.3Zm8.51-.006a7.572,7.572,0,0,1-1.321.121,2.165,2.165,0,0,1-1.516-.4,2.135,2.135,0,0,1-.4-1.513v-2.424H257.79V167.4h1.253v-1.083h.916V167.4h2.222v.683h-2.222v2.572a2.228,2.228,0,0,0,.053.59.549.549,0,0,0,.229.285,1.682,1.682,0,0,0,.915.206,5.009,5.009,0,0,0,1.128-.129v.692Zm11.186-.179a5.165,5.165,0,0,1-1.726.327,3.114,3.114,0,0,1-2.279-.848,2.983,2.983,0,0,1-.864-2.231,3.093,3.093,0,0,1,.859-2.27,3.021,3.021,0,0,1,2.246-.868,5.916,5.916,0,0,1,1.683.267v.838a4.107,4.107,0,0,0-1.709-.419,1.928,1.928,0,0,0-1.515.673,2.5,2.5,0,0,0-.595,1.72,2.3,2.3,0,0,0,2.4,2.4,4.264,4.264,0,0,0,1.5-.333v.749Zm3.988-.421a2.57,2.57,0,0,1-1.651.695,1.644,1.644,0,0,1-1.132-.4,1.263,1.263,0,0,1-.448-.993,1.46,1.46,0,0,1,.695-1.258,3.176,3.176,0,0,1,1.83-.475h.563v-.429a1.025,1.025,0,0,0-.235-.76,1.117,1.117,0,0,0-.782-.225,3.526,3.526,0,0,0-1.637.442v-.781a5.433,5.433,0,0,1,1.823-.346,1.942,1.942,0,0,1,1.353.379,1.771,1.771,0,0,1,.394,1.309v2.1a1.366,1.366,0,0,0,.1.618.388.388,0,0,0,.366.167,1.424,1.424,0,0,0,.287-.048l.083.547a2.42,2.42,0,0,1-.693.148.9.9,0,0,1-.912-.695Zm-.143-.591V169.84h-.273q-1.872,0-1.871,1.012a.759.759,0,0,0,.241.589.9.9,0,0,0,.637.222,2.041,2.041,0,0,0,1.266-.556Zm3.178,1.2v-5.022h.909v.945a2.13,2.13,0,0,1,1.863-1.055,4.379,4.379,0,0,1,.934.115v1.426h-.685v-.7a1.81,1.81,0,0,0-.37-.046,1.722,1.722,0,0,0-.915.241,3.142,3.142,0,0,0-.827.827V172.3Zm8.114,0v-.942a1.929,1.929,0,0,1-1.646,1.057,1.578,1.578,0,0,1-1.342-.663,2.92,2.92,0,0,1-.494-1.795,3.253,3.253,0,0,1,.582-2.019,1.825,1.825,0,0,1,1.525-.771,1.723,1.723,0,0,1,1.374.685V165h.909v7.3Zm0-3.763a1.78,1.78,0,0,0-1.249-.685,1.041,1.041,0,0,0-.931.526,2.785,2.785,0,0,0-.332,1.484q0,1.772,1.06,1.772a1.859,1.859,0,0,0,1.453-.961Z" transform="translate(6.846 2.63)" fill="#fff" fill-rule="evenodd"/>
    </g>
  </g>
</svg>
